<svg width="40" height="40" viewBox="0 0 40 40" fill="none" xmlns="http://www.w3.org/2000/svg">
<rect width="40" height="40" rx="20" fill="#2CE15F"/>
<path d="M16.2234 17.3275C16.2234 16.6984 16.5656 16.4811 17.1617 16.4811C17.7577 16.4811 18.0999 16.6984 18.0999 17.3275C18.0999 17.9565 17.7926 18.1898 17.1617 18.1898C16.4958 18.1898 16.2234 17.9794 16.2234 17.3275Z" fill="#002423"/>
<path d="M19.1196 17.3275C19.1196 16.6984 19.4619 16.4811 20.0579 16.4811C20.6539 16.4811 20.9962 16.6984 20.9962 17.3275C20.9962 17.9565 20.6888 18.1898 20.0579 18.1898C19.392 18.1898 19.1196 17.9794 19.1196 17.3275Z" fill="#002423"/>
<path d="M22.0137 17.3275C22.0137 16.6984 22.3559 16.4811 22.9519 16.4811C23.548 16.4811 23.8902 16.6984 23.8902 17.3275C23.8902 17.9565 23.5829 18.1898 22.9519 18.1898C22.2861 18.1898 22.0137 17.9794 22.0137 17.3275Z" fill="#002423"/>
<path d="M24.3207 12H15.7902C14.5376 12 13.3619 12.4781 12.4772 13.3496C11.5482 14.2646 11.0174 15.5478 11.0197 16.8723C11.0197 20.2051 10.9871 23.7414 11.0057 27.0193V27.0445L17.0963 23.1879C17.6062 22.8631 18.0556 22.6755 18.8518 22.6755H24.2672C26.9004 22.6755 29.0912 20.4246 29.0912 17.8398V16.6893C29.0912 14.1022 26.9493 12 24.3184 12H24.3207ZM25.4406 19.6355C24.812 20.2897 23.9599 20.6511 23.0426 20.6511H17.8949C16.0766 20.6511 13.6739 22.719 13.6739 22.719C13.6739 21.3236 13.7228 19.7842 13.7274 18.3888C13.7321 17.1124 13.6972 15.9435 14.682 14.976C15.3059 14.3629 16.1348 14.0244 17.0172 14.0244H22.9727C24.7864 14.0244 26.2857 15.3625 26.3905 17.069C26.4441 17.9748 26.0739 18.9836 25.4429 19.6378L25.4406 19.6355Z" fill="#002423"/>
</svg>
