<svg width="155" height="31" viewBox="0 0 155 31" fill="none" xmlns="http://www.w3.org/2000/svg">
<path d="M0 22.497V0H4.94158V6.89609C5.95315 5.13684 8.73593 4.72559 12.445 4.72559C14.2511 4.72559 15.7898 5.20919 17.0533 5.92127C19.5841 7.28449 20.9407 9.7977 20.9407 13.202V22.497H15.7898V14.6832C15.7898 13.5294 15.6076 12.5242 15.3363 11.6636C14.7046 9.91575 13.2861 8.91046 10.7591 8.91046C6.75155 8.91046 4.94545 10.9248 4.94545 14.9193V22.497H0Z" fill="#2CE15F"/>
<path d="M56.241 16.4463H62.1166C62.6902 18.0684 64.1669 18.731 68.1705 18.731C71.9377 18.731 73.023 18.0075 73.023 16.8499C73.023 16.3016 72.7827 15.9817 71.9067 15.7799C71.0347 15.5476 69.3177 15.4334 66.4226 15.3458C59.5547 15.144 56.8727 13.7846 56.8727 10.4831C56.8727 9.35598 57.2022 8.36974 57.9269 7.532C59.3416 5.79561 62.1437 4.72559 66.5427 4.72559C73.0501 4.72559 76.5731 6.49245 77.8405 10.5136H72.2982C71.8176 8.80765 69.7092 8.28597 66.4846 8.28597C65.2211 8.28597 64.287 8.34309 63.5933 8.5449C62.2678 8.89142 61.8143 9.47022 61.8143 10.0795C61.8143 10.5707 61.9654 10.9172 62.8065 11.18C63.6514 11.4122 65.2792 11.5569 68.1705 11.6712C72.116 11.8159 74.6159 12.2195 76.0654 13.0306C77.5731 13.8112 78.0847 14.9993 78.0847 16.7357C78.0847 20.0638 74.6508 22.497 67.9031 22.497C60.7911 22.497 57.1169 20.5588 56.2448 16.4463H56.241Z" fill="#2CE15F"/>
<path d="M101.269 25.9355L103.765 25.7528C104.785 25.6766 105.56 25.5319 106.145 25.2539C107.378 24.7779 108.06 23.8069 108.819 22.2381L109.316 21.1947L98.6882 4.72559H103.94L111.653 16.5757L117.021 4.72559H122.315L113.602 22.7826C112.164 25.7375 111.087 27.4777 109.746 28.5249C108.374 29.5454 106.618 29.911 103.855 30.1128L101.603 30.2765L101.277 25.9355H101.269Z" fill="#2CE15F"/>
<path d="M126.497 17.9085L124.268 22.497H118.815L129.69 0H135.023L146.081 22.497H140.69L138.399 17.9085H126.501H126.497ZM128.454 13.8836H136.349L132.341 4.47046L128.454 13.8836Z" fill="#2CE15F"/>
<path d="M32.533 13.5942C32.533 12.547 33.1027 12.1852 34.0949 12.1852C35.0871 12.1852 35.6568 12.547 35.6568 13.5942C35.6568 14.6413 35.1452 15.0297 34.0949 15.0297C32.9864 15.0297 32.533 14.6794 32.533 13.5942Z" fill="#2CE15F"/>
<path d="M37.3545 13.5942C37.3545 12.547 37.9242 12.1852 38.9164 12.1852C39.9086 12.1852 40.4783 12.547 40.4783 13.5942C40.4783 14.6413 39.9667 15.0297 38.9164 15.0297C37.808 15.0297 37.3545 14.6794 37.3545 13.5942Z" fill="#2CE15F"/>
<path d="M42.1719 13.5942C42.1719 12.547 42.7416 12.1852 43.7338 12.1852C44.726 12.1852 45.2957 12.547 45.2957 13.5942C45.2957 14.6413 44.7841 15.0297 43.7338 15.0297C42.6253 15.0297 42.1719 14.6794 42.1719 13.5942Z" fill="#2CE15F"/>
<path d="M149.015 2.33804C149.015 0.601647 149.972 0 151.65 0C153.328 0 154.286 0.601647 154.286 2.33804C154.286 4.07444 153.421 4.72178 151.65 4.72178C149.782 4.72178 149.015 4.14298 149.015 2.33804Z" fill="#2CE15F"/>
<path d="M46.0129 4.72559H31.8121C29.727 4.72559 27.7697 5.52144 26.2969 6.97225C24.7505 8.4954 23.8668 10.6316 23.8707 12.8364C23.8707 18.3845 23.8165 24.2715 23.8475 29.7282V29.7701L33.9864 23.35C34.8352 22.8093 35.5832 22.497 36.9087 22.497H45.9237C50.3072 22.497 53.9543 18.7501 53.9543 14.4471V12.5318C53.9543 8.22504 50.3886 4.72559 46.009 4.72559H46.0129ZM47.8771 17.4363C46.8306 18.5254 45.4121 19.127 43.8851 19.127H35.3158C32.2888 19.127 28.2891 22.5694 28.2891 22.5694C28.2891 20.2466 28.3705 17.6838 28.3782 15.361C28.386 13.2362 28.3278 11.2904 29.9673 9.67966C31.006 8.65914 32.3857 8.09557 33.8546 8.09557H43.7688C46.788 8.09557 49.284 10.3232 49.4584 13.1639C49.5475 14.6718 48.9313 16.3511 47.881 17.4401L47.8771 17.4363Z" fill="#2CE15F"/>
<path d="M89.2003 8.98662V13.2895C89.2041 15.4829 89.3553 16.7243 90.0529 17.3449C90.6847 18.0265 91.859 18.1446 93.8783 18.1446H96.5293V22.497H92.5218C90.3824 22.497 88.7546 22.2 87.5802 21.6974C85.1966 20.574 84.3595 18.236 84.3595 14.1235V8.99043H79.5303V4.71797L84.3323 4.73321C84.3323 4.34861 84.3207 1.40892 84.3207 0.00761414H89.1886L89.2003 4.73321H96.5215V8.99423H89.2003V8.98662Z" fill="#2CE15F"/>
<path d="M154.286 6.59146H149.015V22.497H154.286V6.59146Z" fill="#2CE15F"/>
</svg>
