<svg width="60" height="60" viewBox="0 0 60 60" fill="none" xmlns="http://www.w3.org/2000/svg">
<rect width="60" height="60" rx="23" fill="#2CE15F"/>
<path d="M43.725 19.4767C44.445 17.485 42.515 15.555 40.5233 16.2767L16.1817 25.08C14.1833 25.8033 13.9417 28.53 15.78 29.595L23.55 34.0933L30.4883 27.155C30.8027 26.8514 31.2237 26.6834 31.6607 26.6872C32.0977 26.691 32.5157 26.8663 32.8247 27.1753C33.1337 27.4843 33.309 27.9023 33.3128 28.3393C33.3166 28.7763 33.1486 29.1973 32.845 29.5117L25.9067 36.45L30.4067 44.22C31.47 46.0583 34.1967 45.815 34.92 43.8183L43.725 19.4767Z" fill="#000A0A"/>
</svg>
