<svg width="215" height="48" viewBox="0 0 215 48" fill="none" xmlns="http://www.w3.org/2000/svg">
<rect width="215" height="48" rx="24" fill="#2CE15F"/>
<path d="M24.2358 21.3275C24.2358 20.6984 24.5781 20.4811 25.1741 20.4811C25.7701 20.4811 26.1124 20.6984 26.1124 21.3275C26.1124 21.9565 25.805 22.1898 25.1741 22.1898C24.5082 22.1898 24.2358 21.9794 24.2358 21.3275Z" fill="#002423"/>
<path d="M27.1321 21.3275C27.1321 20.6984 27.4743 20.4811 28.0703 20.4811C28.6664 20.4811 29.0086 20.6984 29.0086 21.3275C29.0086 21.9565 28.7013 22.1898 28.0703 22.1898C27.4045 22.1898 27.1321 21.9794 27.1321 21.3275Z" fill="#002423"/>
<path d="M30.0261 21.3275C30.0261 20.6984 30.3684 20.4811 30.9644 20.4811C31.5604 20.4811 31.9027 20.6984 31.9027 21.3275C31.9027 21.9565 31.5953 22.1898 30.9644 22.1898C30.2985 22.1898 30.0261 21.9794 30.0261 21.3275Z" fill="#002423"/>
<path d="M32.3332 16H23.8027C22.5501 16 21.3743 16.4781 20.4896 17.3496C19.5607 18.2646 19.0298 19.5478 19.0322 20.8723C19.0322 24.2051 18.9996 27.7414 19.0182 31.0193V31.0445L25.1088 27.1879C25.6187 26.8631 26.068 26.6755 26.8642 26.6755H32.2796C34.9128 26.6755 37.1037 24.4246 37.1037 21.8398V20.6893C37.1037 18.1022 34.9617 16 32.3309 16H32.3332ZM33.4531 23.6355C32.8244 24.2897 31.9723 24.6511 31.055 24.6511H25.9074C24.089 24.6511 21.6863 26.719 21.6863 26.719C21.6863 25.3236 21.7352 23.7842 21.7399 22.3888C21.7445 21.1124 21.7096 19.9435 22.6944 18.976C23.3184 18.3629 24.1472 18.0244 25.0296 18.0244H30.9852C32.7988 18.0244 34.2982 19.3625 34.403 21.069C34.4565 21.9748 34.0863 22.9836 33.4554 23.6378L33.4531 23.6355Z" fill="#002423"/>
<path d="M51.4716 21.5625C51.4186 21.0663 51.1951 20.6799 50.8011 20.4034C50.411 20.1269 49.9034 19.9886 49.2784 19.9886C48.839 19.9886 48.4621 20.0549 48.1477 20.1875C47.8333 20.3201 47.5928 20.5 47.4261 20.7273C47.2595 20.9545 47.1742 21.214 47.1705 21.5057C47.1705 21.7481 47.2254 21.9583 47.3352 22.1364C47.4489 22.3144 47.6023 22.4659 47.7955 22.5909C47.9886 22.7121 48.2027 22.8144 48.4375 22.8977C48.6723 22.9811 48.9091 23.0511 49.1477 23.108L50.2386 23.3807C50.678 23.483 51.1004 23.6212 51.5057 23.7955C51.9148 23.9697 52.2803 24.1894 52.6023 24.4545C52.928 24.7197 53.1856 25.0398 53.375 25.4148C53.5644 25.7898 53.6591 26.2292 53.6591 26.733C53.6591 27.4148 53.4848 28.0152 53.1364 28.5341C52.7879 29.0492 52.2841 29.4527 51.625 29.7443C50.9697 30.0322 50.1761 30.1761 49.2443 30.1761C48.339 30.1761 47.553 30.036 46.8864 29.7557C46.2235 29.4754 45.7045 29.0663 45.3295 28.5284C44.9583 27.9905 44.7576 27.3352 44.7273 26.5625H46.8011C46.8314 26.9678 46.9564 27.3049 47.1761 27.5739C47.3958 27.8428 47.6818 28.0436 48.0341 28.1761C48.3902 28.3087 48.7879 28.375 49.2273 28.375C49.6856 28.375 50.0871 28.3068 50.4318 28.1705C50.7803 28.0303 51.053 27.8371 51.25 27.5909C51.447 27.3409 51.5473 27.0492 51.5511 26.7159C51.5473 26.4129 51.4583 26.1629 51.2841 25.9659C51.1098 25.7652 50.8655 25.5985 50.5511 25.4659C50.2405 25.3295 49.8769 25.2083 49.4602 25.1023L48.1364 24.7614C47.178 24.5152 46.4205 24.142 45.8636 23.642C45.3106 23.1383 45.0341 22.4697 45.0341 21.6364C45.0341 20.9508 45.2197 20.3504 45.5909 19.8352C45.9659 19.3201 46.4754 18.9205 47.1193 18.6364C47.7633 18.3485 48.4924 18.2045 49.3068 18.2045C50.1326 18.2045 50.8561 18.3485 51.4773 18.6364C52.1023 18.9205 52.5928 19.3163 52.9489 19.8239C53.3049 20.3277 53.4886 20.9072 53.5 21.5625H51.4716ZM59.8054 21.2727V22.8636H54.7884V21.2727H59.8054ZM56.027 19.1818H58.0838V27.375C58.0838 27.6515 58.1255 27.8636 58.2088 28.0114C58.2959 28.1553 58.4096 28.2538 58.5497 28.3068C58.6899 28.3598 58.8452 28.3864 59.0156 28.3864C59.1444 28.3864 59.2618 28.3769 59.3679 28.358C59.4777 28.339 59.5611 28.322 59.6179 28.3068L59.9645 29.9148C59.8546 29.9527 59.6974 29.9943 59.4929 30.0398C59.2921 30.0852 59.0459 30.1117 58.7543 30.1193C58.2391 30.1345 57.7751 30.0568 57.3622 29.8864C56.9493 29.7121 56.6217 29.4432 56.3793 29.0795C56.1406 28.7159 56.0232 28.2614 56.027 27.7159V19.1818ZM64.0369 30.1761C63.4839 30.1761 62.9858 30.0777 62.5426 29.8807C62.1032 29.6799 61.7547 29.3845 61.4972 28.9943C61.2434 28.6042 61.1165 28.1231 61.1165 27.5511C61.1165 27.0587 61.2074 26.6515 61.3892 26.3295C61.571 26.0076 61.8191 25.75 62.1335 25.5568C62.4479 25.3636 62.8021 25.2178 63.196 25.1193C63.5938 25.017 64.0047 24.9432 64.429 24.8977C64.9403 24.8447 65.3551 24.7973 65.6733 24.7557C65.9915 24.7102 66.2225 24.642 66.3665 24.5511C66.5142 24.4564 66.5881 24.3106 66.5881 24.1136V24.0795C66.5881 23.6515 66.4612 23.3201 66.2074 23.0852C65.9536 22.8504 65.5881 22.733 65.1108 22.733C64.607 22.733 64.2074 22.8428 63.9119 23.0625C63.6203 23.2822 63.4233 23.5417 63.321 23.8409L61.4006 23.5682C61.5521 23.0379 61.8021 22.5947 62.1506 22.2386C62.4991 21.8788 62.9252 21.6098 63.429 21.4318C63.9328 21.25 64.4896 21.1591 65.0994 21.1591C65.5199 21.1591 65.9384 21.2083 66.3551 21.3068C66.7718 21.4053 67.1525 21.5682 67.4972 21.7955C67.8419 22.0189 68.1184 22.3239 68.3267 22.7102C68.5388 23.0966 68.6449 23.5795 68.6449 24.1591V30H66.6676V28.8011H66.5994C66.4744 29.0436 66.2983 29.2708 66.071 29.483C65.8475 29.6913 65.5653 29.8598 65.2244 29.9886C64.8873 30.1136 64.4915 30.1761 64.0369 30.1761ZM64.571 28.6648C64.9839 28.6648 65.3419 28.5833 65.6449 28.4205C65.9479 28.2538 66.1809 28.0341 66.3438 27.7614C66.5104 27.4886 66.5938 27.1913 66.5938 26.8693V25.8409C66.5294 25.8939 66.4195 25.9432 66.2642 25.9886C66.1127 26.0341 65.9422 26.0739 65.7528 26.108C65.5634 26.142 65.3759 26.1723 65.1903 26.1989C65.0047 26.2254 64.8438 26.2481 64.7074 26.267C64.4006 26.3087 64.1259 26.3769 63.8835 26.4716C63.6411 26.5663 63.4498 26.6989 63.3097 26.8693C63.1695 27.036 63.0994 27.2519 63.0994 27.517C63.0994 27.8958 63.2377 28.1818 63.5142 28.375C63.7907 28.5682 64.143 28.6648 64.571 28.6648ZM70.7131 30V21.2727H72.7074V22.7273H72.7983C72.9574 22.2235 73.2301 21.8352 73.6165 21.5625C74.0066 21.286 74.4517 21.1477 74.9517 21.1477C75.0653 21.1477 75.1922 21.1534 75.3324 21.1648C75.4763 21.1723 75.5956 21.1856 75.6903 21.2045V23.0966C75.6032 23.0663 75.465 23.0398 75.2756 23.017C75.09 22.9905 74.91 22.9773 74.7358 22.9773C74.3608 22.9773 74.0237 23.0587 73.7244 23.2216C73.429 23.3807 73.196 23.6023 73.0256 23.8864C72.8551 24.1705 72.7699 24.4981 72.7699 24.8693V30H70.7131ZM81.8835 21.2727V22.8636H76.8665V21.2727H81.8835ZM78.1051 19.1818H80.1619V27.375C80.1619 27.6515 80.2036 27.8636 80.2869 28.0114C80.3741 28.1553 80.4877 28.2538 80.6278 28.3068C80.768 28.3598 80.9233 28.3864 81.0938 28.3864C81.2225 28.3864 81.34 28.3769 81.446 28.358C81.5559 28.339 81.6392 28.322 81.696 28.3068L82.0426 29.9148C81.9328 29.9527 81.7756 29.9943 81.571 30.0398C81.3703 30.0852 81.1241 30.1117 80.8324 30.1193C80.3172 30.1345 79.8532 30.0568 79.4403 29.8864C79.0275 29.7121 78.6998 29.4432 78.4574 29.0795C78.2188 28.7159 78.1013 28.2614 78.1051 27.7159V19.1818ZM91.3793 30.1705C90.508 30.1705 89.7599 29.9792 89.1349 29.5966C88.5137 29.214 88.0346 28.6856 87.6974 28.0114C87.3641 27.3333 87.1974 26.553 87.1974 25.6705C87.1974 24.7841 87.3679 24.0019 87.7088 23.3239C88.0497 22.642 88.5308 22.1117 89.152 21.733C89.777 21.3504 90.5156 21.1591 91.3679 21.1591C92.0762 21.1591 92.7031 21.2898 93.2486 21.5511C93.7978 21.8087 94.2353 22.1742 94.5611 22.6477C94.8868 23.1174 95.0724 23.6667 95.1179 24.2955H93.152C93.0724 23.875 92.883 23.5246 92.5838 23.2443C92.2884 22.9602 91.8925 22.8182 91.3963 22.8182C90.9759 22.8182 90.6065 22.9318 90.2884 23.1591C89.9702 23.3826 89.7221 23.7045 89.544 24.125C89.3698 24.5455 89.2827 25.0492 89.2827 25.6364C89.2827 26.2311 89.3698 26.7424 89.544 27.1705C89.7183 27.5947 89.9626 27.9223 90.277 28.1534C90.5952 28.3807 90.9683 28.4943 91.3963 28.4943C91.6993 28.4943 91.9702 28.4375 92.2088 28.3239C92.4512 28.2064 92.6539 28.0379 92.8168 27.8182C92.9796 27.5985 93.0914 27.3314 93.152 27.017H95.1179C95.0687 27.6345 94.8868 28.1818 94.5724 28.6591C94.258 29.1326 93.83 29.5038 93.2884 29.7727C92.7467 30.0379 92.1103 30.1705 91.3793 30.1705ZM100.614 30.1705C99.7614 30.1705 99.0227 29.983 98.3977 29.608C97.7727 29.233 97.2879 28.7083 96.9432 28.0341C96.6023 27.3598 96.4318 26.572 96.4318 25.6705C96.4318 24.7689 96.6023 23.9792 96.9432 23.3011C97.2879 22.6231 97.7727 22.0966 98.3977 21.7216C99.0227 21.3466 99.7614 21.1591 100.614 21.1591C101.466 21.1591 102.205 21.3466 102.83 21.7216C103.455 22.0966 103.938 22.6231 104.278 23.3011C104.623 23.9792 104.795 24.7689 104.795 25.6705C104.795 26.572 104.623 27.3598 104.278 28.0341C103.938 28.7083 103.455 29.233 102.83 29.608C102.205 29.983 101.466 30.1705 100.614 30.1705ZM100.625 28.5227C101.087 28.5227 101.473 28.3958 101.784 28.142C102.095 27.8845 102.326 27.5398 102.477 27.108C102.633 26.6761 102.71 26.1951 102.71 25.6648C102.71 25.1307 102.633 24.6477 102.477 24.2159C102.326 23.7803 102.095 23.4337 101.784 23.1761C101.473 22.9186 101.087 22.7898 100.625 22.7898C100.152 22.7898 99.7576 22.9186 99.4432 23.1761C99.1326 23.4337 98.8996 23.7803 98.7443 24.2159C98.5928 24.6477 98.517 25.1307 98.517 25.6648C98.517 26.1951 98.5928 26.6761 98.7443 27.108C98.8996 27.5398 99.1326 27.8845 99.4432 28.142C99.7576 28.3958 100.152 28.5227 100.625 28.5227ZM108.598 24.8864V30H106.541V21.2727H108.507V22.7557H108.609C108.81 22.267 109.13 21.8788 109.57 21.5909C110.013 21.303 110.56 21.1591 111.212 21.1591C111.814 21.1591 112.339 21.2879 112.786 21.5455C113.236 21.803 113.585 22.1761 113.831 22.6648C114.081 23.1534 114.204 23.7462 114.2 24.4432V30H112.143V24.7614C112.143 24.178 111.992 23.7216 111.689 23.392C111.39 23.0625 110.975 22.8977 110.445 22.8977C110.085 22.8977 109.765 22.9773 109.484 23.1364C109.208 23.2917 108.99 23.517 108.831 23.8125C108.676 24.108 108.598 24.4659 108.598 24.8864ZM123.774 21.2727L120.666 30H118.393L115.286 21.2727H117.479L119.484 27.7557H119.575L121.587 21.2727H123.774ZM128.764 30.1705C127.889 30.1705 127.134 29.9886 126.497 29.625C125.865 29.2576 125.378 28.7386 125.037 28.0682C124.696 27.3939 124.526 26.6004 124.526 25.6875C124.526 24.7898 124.696 24.0019 125.037 23.3239C125.382 22.642 125.863 22.1117 126.48 21.733C127.098 21.3504 127.823 21.1591 128.656 21.1591C129.194 21.1591 129.702 21.2462 130.179 21.4205C130.66 21.5909 131.084 21.8561 131.452 22.2159C131.823 22.5758 132.115 23.0341 132.327 23.5909C132.539 24.1439 132.645 24.803 132.645 25.5682V26.1989H125.491V24.8125H130.673C130.67 24.4186 130.584 24.0682 130.418 23.7614C130.251 23.4508 130.018 23.2064 129.719 23.0284C129.423 22.8504 129.079 22.7614 128.685 22.7614C128.264 22.7614 127.895 22.8636 127.577 23.0682C127.259 23.2689 127.01 23.5341 126.832 23.8636C126.658 24.1894 126.569 24.5473 126.565 24.9375V26.1477C126.565 26.6553 126.658 27.0909 126.844 27.4545C127.029 27.8144 127.289 28.0909 127.622 28.2841C127.955 28.4735 128.346 28.5682 128.793 28.5682C129.092 28.5682 129.363 28.5265 129.605 28.4432C129.848 28.3561 130.058 28.2292 130.236 28.0625C130.414 27.8958 130.548 27.6894 130.639 27.4432L132.56 27.6591C132.438 28.1667 132.207 28.6098 131.866 28.9886C131.529 29.3636 131.098 29.6553 130.571 29.8636C130.045 30.0682 129.442 30.1705 128.764 30.1705ZM134.385 30V21.2727H136.379V22.7273H136.47C136.629 22.2235 136.902 21.8352 137.288 21.5625C137.679 21.286 138.124 21.1477 138.624 21.1477C138.737 21.1477 138.864 21.1534 139.004 21.1648C139.148 21.1723 139.268 21.1856 139.362 21.2045V23.0966C139.275 23.0663 139.137 23.0398 138.947 23.017C138.762 22.9905 138.582 22.9773 138.408 22.9773C138.033 22.9773 137.696 23.0587 137.396 23.2216C137.101 23.3807 136.868 23.6023 136.697 23.8864C136.527 24.1705 136.442 24.4981 136.442 24.8693V30H134.385ZM147.626 23.5795L145.751 23.7841C145.698 23.5947 145.606 23.4167 145.473 23.25C145.344 23.0833 145.17 22.9489 144.95 22.8466C144.731 22.7443 144.462 22.6932 144.143 22.6932C143.715 22.6932 143.356 22.786 143.064 22.9716C142.776 23.1572 142.634 23.3977 142.638 23.6932C142.634 23.947 142.727 24.1534 142.916 24.3125C143.109 24.4716 143.428 24.6023 143.871 24.7045L145.359 25.0227C146.185 25.2008 146.799 25.483 147.2 25.8693C147.606 26.2557 147.81 26.7614 147.814 27.3864C147.81 27.9356 147.649 28.4205 147.331 28.8409C147.017 29.2576 146.579 29.5833 146.018 29.8182C145.458 30.053 144.814 30.1705 144.087 30.1705C143.018 30.1705 142.159 29.947 141.507 29.5C140.856 29.0492 140.467 28.4223 140.342 27.6193L142.348 27.4261C142.439 27.8201 142.632 28.1174 142.928 28.3182C143.223 28.5189 143.607 28.6193 144.081 28.6193C144.57 28.6193 144.962 28.5189 145.257 28.3182C145.556 28.1174 145.706 27.8693 145.706 27.5739C145.706 27.3239 145.609 27.1174 145.416 26.9545C145.227 26.7917 144.931 26.6667 144.53 26.5795L143.041 26.267C142.204 26.0928 141.585 25.7992 141.183 25.3864C140.782 24.9697 140.583 24.4432 140.587 23.8068C140.583 23.2689 140.729 22.803 141.024 22.4091C141.323 22.0114 141.738 21.7045 142.268 21.4886C142.803 21.2689 143.418 21.1591 144.115 21.1591C145.138 21.1591 145.943 21.3769 146.53 21.8125C147.121 22.2481 147.486 22.8371 147.626 23.5795ZM152.021 30.1761C151.468 30.1761 150.97 30.0777 150.527 29.8807C150.088 29.6799 149.739 29.3845 149.482 28.9943C149.228 28.6042 149.101 28.1231 149.101 27.5511C149.101 27.0587 149.192 26.6515 149.374 26.3295C149.555 26.0076 149.804 25.75 150.118 25.5568C150.432 25.3636 150.786 25.2178 151.18 25.1193C151.578 25.017 151.989 24.9432 152.413 24.8977C152.925 24.8447 153.339 24.7973 153.658 24.7557C153.976 24.7102 154.207 24.642 154.351 24.5511C154.499 24.4564 154.572 24.3106 154.572 24.1136V24.0795C154.572 23.6515 154.446 23.3201 154.192 23.0852C153.938 22.8504 153.572 22.733 153.095 22.733C152.591 22.733 152.192 22.8428 151.896 23.0625C151.605 23.2822 151.408 23.5417 151.305 23.8409L149.385 23.5682C149.536 23.0379 149.786 22.5947 150.135 22.2386C150.483 21.8788 150.91 21.6098 151.413 21.4318C151.917 21.25 152.474 21.1591 153.084 21.1591C153.504 21.1591 153.923 21.2083 154.339 21.3068C154.756 21.4053 155.137 21.5682 155.482 21.7955C155.826 22.0189 156.103 22.3239 156.311 22.7102C156.523 23.0966 156.629 23.5795 156.629 24.1591V30H154.652V28.8011H154.584C154.459 29.0436 154.283 29.2708 154.055 29.483C153.832 29.6913 153.55 29.8598 153.209 29.9886C152.872 30.1136 152.476 30.1761 152.021 30.1761ZM152.555 28.6648C152.968 28.6648 153.326 28.5833 153.629 28.4205C153.932 28.2538 154.165 28.0341 154.328 27.7614C154.495 27.4886 154.578 27.1913 154.578 26.8693V25.8409C154.514 25.8939 154.404 25.9432 154.249 25.9886C154.097 26.0341 153.927 26.0739 153.737 26.108C153.548 26.142 153.36 26.1723 153.175 26.1989C152.989 26.2254 152.828 26.2481 152.692 26.267C152.385 26.3087 152.11 26.3769 151.868 26.4716C151.625 26.5663 151.434 26.6989 151.294 26.8693C151.154 27.036 151.084 27.2519 151.084 27.517C151.084 27.8958 151.222 28.1818 151.499 28.375C151.775 28.5682 152.127 28.6648 152.555 28.6648ZM163.055 21.2727V22.8636H158.038V21.2727H163.055ZM159.277 19.1818H161.334V27.375C161.334 27.6515 161.375 27.8636 161.459 28.0114C161.546 28.1553 161.66 28.2538 161.8 28.3068C161.94 28.3598 162.095 28.3864 162.266 28.3864C162.394 28.3864 162.512 28.3769 162.618 28.358C162.728 28.339 162.811 28.322 162.868 28.3068L163.214 29.9148C163.105 29.9527 162.947 29.9943 162.743 30.0398C162.542 30.0852 162.296 30.1117 162.004 30.1193C161.489 30.1345 161.025 30.0568 160.612 29.8864C160.199 29.7121 159.872 29.4432 159.629 29.0795C159.391 28.7159 159.273 28.2614 159.277 27.7159V19.1818ZM164.776 30V21.2727H166.832V30H164.776ZM165.81 20.0341C165.484 20.0341 165.204 19.9261 164.969 19.7102C164.734 19.4905 164.616 19.2273 164.616 18.9205C164.616 18.6098 164.734 18.3466 164.969 18.1307C165.204 17.911 165.484 17.8011 165.81 17.8011C166.139 17.8011 166.42 17.911 166.651 18.1307C166.885 18.3466 167.003 18.6098 167.003 18.9205C167.003 19.2273 166.885 19.4905 166.651 19.7102C166.42 19.9261 166.139 20.0341 165.81 20.0341ZM172.754 30.1705C171.902 30.1705 171.163 29.983 170.538 29.608C169.913 29.233 169.429 28.7083 169.084 28.0341C168.743 27.3598 168.572 26.572 168.572 25.6705C168.572 24.7689 168.743 23.9792 169.084 23.3011C169.429 22.6231 169.913 22.0966 170.538 21.7216C171.163 21.3466 171.902 21.1591 172.754 21.1591C173.607 21.1591 174.345 21.3466 174.97 21.7216C175.595 22.0966 176.078 22.6231 176.419 23.3011C176.764 23.9792 176.936 24.7689 176.936 25.6705C176.936 26.572 176.764 27.3598 176.419 28.0341C176.078 28.7083 175.595 29.233 174.97 29.608C174.345 29.983 173.607 30.1705 172.754 30.1705ZM172.766 28.5227C173.228 28.5227 173.614 28.3958 173.925 28.142C174.235 27.8845 174.466 27.5398 174.618 27.108C174.773 26.6761 174.851 26.1951 174.851 25.6648C174.851 25.1307 174.773 24.6477 174.618 24.2159C174.466 23.7803 174.235 23.4337 173.925 23.1761C173.614 22.9186 173.228 22.7898 172.766 22.7898C172.292 22.7898 171.898 22.9186 171.584 23.1761C171.273 23.4337 171.04 23.7803 170.885 24.2159C170.733 24.6477 170.658 25.1307 170.658 25.6648C170.658 26.1951 170.733 26.6761 170.885 27.108C171.04 27.5398 171.273 27.8845 171.584 28.142C171.898 28.3958 172.292 28.5227 172.766 28.5227ZM180.739 24.8864V30H178.682V21.2727H180.648V22.7557H180.75C180.951 22.267 181.271 21.8788 181.71 21.5909C182.153 21.303 182.701 21.1591 183.352 21.1591C183.955 21.1591 184.479 21.2879 184.926 21.5455C185.377 21.803 185.725 22.1761 185.972 22.6648C186.222 23.1534 186.345 23.7462 186.341 24.4432V30H184.284V24.7614C184.284 24.178 184.133 23.7216 183.83 23.392C183.53 23.0625 183.116 22.8977 182.585 22.8977C182.225 22.8977 181.905 22.9773 181.625 23.1364C181.348 23.2917 181.131 23.517 180.972 23.8125C180.816 24.108 180.739 24.4659 180.739 24.8864ZM191.864 29.3125V21.4489H193.648V29.3125H191.864ZM188.824 26.2727V24.4886H196.688V26.2727H188.824Z" fill="#002423"/>
</svg>
